<svg xmlns="http://www.w3.org/2000/svg" xmlns:xlink="http://www.w3.org/1999/xlink" width="160" zoomAndPan="magnify" viewBox="0 0 120 60" height="80" preserveAspectRatio="xMidYMid meet" version="1.0"><defs><g/></defs><g fill="#00c738" fill-opacity="1"><g transform="translate(52.683355, 24.000001)"><g><path d="M 5.75 -1.953125 C 6.28125 -1.953125 6.707031 -2.035156 7.03125 -2.203125 C 7.363281 -2.367188 7.53125 -2.625 7.53125 -2.96875 C 7.53125 -3.195312 7.46875 -3.390625 7.34375 -3.546875 C 7.21875 -3.703125 6.96875 -3.847656 6.59375 -3.984375 C 6.226562 -4.128906 5.6875 -4.300781 4.96875 -4.5 C 4.3125 -4.675781 3.734375 -4.898438 3.234375 -5.171875 C 2.734375 -5.441406 2.34375 -5.789062 2.0625 -6.21875 C 1.78125 -6.644531 1.640625 -7.175781 1.640625 -7.8125 C 1.640625 -8.457031 1.816406 -9.03125 2.171875 -9.53125 C 2.535156 -10.03125 3.0625 -10.421875 3.75 -10.703125 C 4.445312 -10.992188 5.300781 -11.140625 6.3125 -11.140625 C 7.28125 -11.140625 8.117188 -11.015625 8.828125 -10.765625 C 9.546875 -10.523438 10.164062 -10.210938 10.6875 -9.828125 L 9.40625 -7.9375 C 8.957031 -8.21875 8.472656 -8.441406 7.953125 -8.609375 C 7.441406 -8.773438 6.925781 -8.859375 6.40625 -8.859375 C 5.882812 -8.859375 5.492188 -8.785156 5.234375 -8.640625 C 4.984375 -8.503906 4.859375 -8.296875 4.859375 -8.015625 C 4.859375 -7.835938 4.925781 -7.679688 5.0625 -7.546875 C 5.195312 -7.421875 5.445312 -7.285156 5.8125 -7.140625 C 6.175781 -7.003906 6.707031 -6.832031 7.40625 -6.625 C 8.101562 -6.4375 8.710938 -6.210938 9.234375 -5.953125 C 9.753906 -5.691406 10.15625 -5.347656 10.4375 -4.921875 C 10.71875 -4.492188 10.859375 -3.925781 10.859375 -3.21875 C 10.859375 -2.4375 10.625 -1.78125 10.15625 -1.25 C 9.695312 -0.71875 9.082031 -0.316406 8.3125 -0.046875 C 7.539062 0.210938 6.691406 0.34375 5.765625 0.34375 C 4.722656 0.34375 3.800781 0.195312 3 -0.09375 C 2.207031 -0.394531 1.53125 -0.789062 0.96875 -1.28125 L 2.578125 -3.09375 C 2.992188 -2.757812 3.46875 -2.484375 4 -2.265625 C 4.53125 -2.054688 5.113281 -1.953125 5.75 -1.953125 Z M 5.75 -1.953125 "/></g></g></g><g fill="#00c738" fill-opacity="1"><g transform="translate(64.861448, 24.000001)"><g><path d="M 7.390625 -11.140625 C 8.335938 -11.140625 9.097656 -10.90625 9.671875 -10.4375 C 10.242188 -9.96875 10.660156 -9.304688 10.921875 -8.453125 C 11.191406 -7.609375 11.328125 -6.597656 11.328125 -5.421875 C 11.328125 -4.304688 11.164062 -3.3125 10.84375 -2.4375 C 10.519531 -1.570312 10.050781 -0.890625 9.4375 -0.390625 C 8.820312 0.0976562 8.070312 0.34375 7.1875 0.34375 C 6.132812 0.34375 5.28125 -0.03125 4.625 -0.78125 L 4.625 4.15625 L 1.421875 4.5 L 1.421875 -10.78125 L 4.265625 -10.78125 L 4.40625 -9.578125 C 4.84375 -10.140625 5.320312 -10.539062 5.84375 -10.78125 C 6.363281 -11.019531 6.878906 -11.140625 7.390625 -11.140625 Z M 6.390625 -8.78125 C 6.023438 -8.78125 5.695312 -8.664062 5.40625 -8.4375 C 5.125 -8.21875 4.863281 -7.914062 4.625 -7.53125 L 4.625 -2.96875 C 4.851562 -2.644531 5.085938 -2.40625 5.328125 -2.25 C 5.578125 -2.09375 5.875 -2.015625 6.21875 -2.015625 C 6.78125 -2.015625 7.21875 -2.269531 7.53125 -2.78125 C 7.851562 -3.300781 8.015625 -4.164062 8.015625 -5.375 C 8.015625 -6.269531 7.953125 -6.960938 7.828125 -7.453125 C 7.703125 -7.953125 7.515625 -8.296875 7.265625 -8.484375 C 7.023438 -8.679688 6.734375 -8.78125 6.390625 -8.78125 Z M 6.390625 -8.78125 "/></g></g></g><g fill="#00c738" fill-opacity="1"><g transform="translate(77.03954, 24.000001)"><g><path d="M 7.046875 -15.078125 L 7.046875 -3.390625 C 7.046875 -2.953125 7.171875 -2.640625 7.421875 -2.453125 C 7.671875 -2.273438 8.007812 -2.1875 8.4375 -2.1875 C 8.71875 -2.1875 8.984375 -2.21875 9.234375 -2.28125 C 9.492188 -2.34375 9.738281 -2.421875 9.96875 -2.515625 L 10.734375 -0.359375 C 10.367188 -0.171875 9.925781 -0.0078125 9.40625 0.125 C 8.894531 0.269531 8.296875 0.34375 7.609375 0.34375 C 6.316406 0.34375 5.363281 -0.03125 4.75 -0.78125 C 4.144531 -1.53125 3.84375 -2.53125 3.84375 -3.78125 L 3.84375 -12.875 L 0.65625 -12.875 L 0.65625 -15.078125 Z M 7.046875 -15.078125 "/></g></g></g><g fill="#00c738" fill-opacity="1"><g transform="translate(89.217633, 24.000001)"><g><path d="M 8.015625 -10.78125 L 8.015625 -2.1875 L 10.75 -2.1875 L 10.75 0 L 1.75 0 L 1.75 -2.1875 L 4.796875 -2.1875 L 4.796875 -8.59375 L 1.84375 -8.59375 L 1.84375 -10.78125 Z M 6.078125 -16.4375 C 6.628906 -16.4375 7.082031 -16.257812 7.4375 -15.90625 C 7.789062 -15.5625 7.96875 -15.132812 7.96875 -14.625 C 7.96875 -14.113281 7.789062 -13.679688 7.4375 -13.328125 C 7.082031 -12.984375 6.628906 -12.8125 6.078125 -12.8125 C 5.515625 -12.8125 5.050781 -12.984375 4.6875 -13.328125 C 4.332031 -13.679688 4.15625 -14.113281 4.15625 -14.625 C 4.15625 -15.132812 4.332031 -15.5625 4.6875 -15.90625 C 5.050781 -16.257812 5.515625 -16.4375 6.078125 -16.4375 Z M 6.078125 -16.4375 "/></g></g></g><g fill="#00c738" fill-opacity="1"><g transform="translate(101.395725, 24.000001)"><g><path d="M 11.125 -0.625 C 10.707031 -0.351562 10.203125 -0.125 9.609375 0.0625 C 9.015625 0.25 8.34375 0.34375 7.59375 0.34375 C 6.1875 0.34375 5.140625 -0.015625 4.453125 -0.734375 C 3.773438 -1.453125 3.4375 -2.429688 3.4375 -3.671875 L 3.4375 -8.578125 L 1.171875 -8.578125 L 1.171875 -10.78125 L 3.4375 -10.78125 L 3.4375 -13.125 L 6.640625 -13.5 L 6.640625 -10.78125 L 10.109375 -10.78125 L 9.796875 -8.578125 L 6.640625 -8.578125 L 6.640625 -3.671875 C 6.640625 -3.140625 6.757812 -2.757812 7 -2.53125 C 7.25 -2.300781 7.640625 -2.1875 8.171875 -2.1875 C 8.554688 -2.1875 8.90625 -2.226562 9.21875 -2.3125 C 9.53125 -2.40625 9.8125 -2.523438 10.0625 -2.671875 Z M 11.125 -0.625 "/></g></g></g><g fill="#00c738" fill-opacity="1"><g transform="translate(52.683355, 46.5)"><g><path d="M 7.046875 -15.078125 L 7.046875 -3.390625 C 7.046875 -2.953125 7.171875 -2.640625 7.421875 -2.453125 C 7.671875 -2.273438 8.007812 -2.1875 8.4375 -2.1875 C 8.71875 -2.1875 8.984375 -2.21875 9.234375 -2.28125 C 9.492188 -2.34375 9.738281 -2.421875 9.96875 -2.515625 L 10.734375 -0.359375 C 10.367188 -0.171875 9.925781 -0.0078125 9.40625 0.125 C 8.894531 0.269531 8.296875 0.34375 7.609375 0.34375 C 6.316406 0.34375 5.363281 -0.03125 4.75 -0.78125 C 4.144531 -1.53125 3.84375 -2.53125 3.84375 -3.78125 L 3.84375 -12.875 L 0.65625 -12.875 L 0.65625 -15.078125 Z M 7.046875 -15.078125 "/></g></g></g><g fill="#00c738" fill-opacity="1"><g transform="translate(64.861448, 46.5)"><g><path d="M 8.015625 -10.78125 L 8.015625 -2.1875 L 10.75 -2.1875 L 10.75 0 L 1.75 0 L 1.75 -2.1875 L 4.796875 -2.1875 L 4.796875 -8.59375 L 1.84375 -8.59375 L 1.84375 -10.78125 Z M 6.078125 -16.4375 C 6.628906 -16.4375 7.082031 -16.257812 7.4375 -15.90625 C 7.789062 -15.5625 7.96875 -15.132812 7.96875 -14.625 C 7.96875 -14.113281 7.789062 -13.679688 7.4375 -13.328125 C 7.082031 -12.984375 6.628906 -12.8125 6.078125 -12.8125 C 5.515625 -12.8125 5.050781 -12.984375 4.6875 -13.328125 C 4.332031 -13.679688 4.15625 -14.113281 4.15625 -14.625 C 4.15625 -15.132812 4.332031 -15.5625 4.6875 -15.90625 C 5.050781 -16.257812 5.515625 -16.4375 6.078125 -16.4375 Z M 6.078125 -16.4375 "/></g></g></g><g fill="#00c738" fill-opacity="1"><g transform="translate(77.03954, 46.5)"><g><path d="M 1.421875 0 L 1.421875 -10.78125 L 4.21875 -10.78125 L 4.453125 -9.53125 C 4.929688 -10.070312 5.4375 -10.472656 5.96875 -10.734375 C 6.507812 -11.003906 7.117188 -11.140625 7.796875 -11.140625 C 8.722656 -11.140625 9.445312 -10.859375 9.96875 -10.296875 C 10.5 -9.734375 10.765625 -8.941406 10.765625 -7.921875 L 10.765625 0 L 7.5625 0 L 7.5625 -7 C 7.5625 -7.4375 7.53125 -7.785156 7.46875 -8.046875 C 7.40625 -8.304688 7.296875 -8.492188 7.140625 -8.609375 C 6.992188 -8.722656 6.785156 -8.78125 6.515625 -8.78125 C 6.296875 -8.78125 6.078125 -8.726562 5.859375 -8.625 C 5.648438 -8.53125 5.441406 -8.390625 5.234375 -8.203125 C 5.035156 -8.023438 4.832031 -7.804688 4.625 -7.546875 L 4.625 0 Z M 1.421875 0 "/></g></g></g><g fill="#00c738" fill-opacity="1"><g transform="translate(89.217633, 46.5)"><g><path d="M 4.203125 -4.453125 C 4.273438 -3.867188 4.425781 -3.394531 4.65625 -3.03125 C 4.894531 -2.664062 5.195312 -2.398438 5.5625 -2.234375 C 5.925781 -2.066406 6.335938 -1.984375 6.796875 -1.984375 C 7.285156 -1.984375 7.757812 -2.066406 8.21875 -2.234375 C 8.6875 -2.398438 9.132812 -2.617188 9.5625 -2.890625 L 10.84375 -1.140625 C 10.332031 -0.703125 9.71875 -0.34375 9 -0.0625 C 8.28125 0.207031 7.460938 0.34375 6.546875 0.34375 C 5.304688 0.34375 4.269531 0.0976562 3.4375 -0.390625 C 2.601562 -0.878906 1.976562 -1.550781 1.5625 -2.40625 C 1.144531 -3.269531 0.9375 -4.257812 0.9375 -5.375 C 0.9375 -6.445312 1.140625 -7.414062 1.546875 -8.28125 C 1.953125 -9.15625 2.546875 -9.847656 3.328125 -10.359375 C 4.109375 -10.878906 5.0625 -11.140625 6.1875 -11.140625 C 7.21875 -11.140625 8.109375 -10.921875 8.859375 -10.484375 C 9.617188 -10.046875 10.207031 -9.410156 10.625 -8.578125 C 11.039062 -7.753906 11.25 -6.765625 11.25 -5.609375 C 11.25 -5.421875 11.242188 -5.222656 11.234375 -5.015625 C 11.222656 -4.804688 11.207031 -4.617188 11.1875 -4.453125 Z M 6.1875 -8.984375 C 5.613281 -8.984375 5.148438 -8.773438 4.796875 -8.359375 C 4.453125 -7.953125 4.238281 -7.296875 4.15625 -6.390625 L 8.125 -6.390625 C 8.113281 -7.171875 7.957031 -7.796875 7.65625 -8.265625 C 7.363281 -8.742188 6.875 -8.984375 6.1875 -8.984375 Z M 6.1875 -8.984375 "/></g></g></g><g fill="#00c738" fill-opacity="1"><g transform="translate(101.395725, 46.5)"><g><path d="M 5.75 -1.953125 C 6.28125 -1.953125 6.707031 -2.035156 7.03125 -2.203125 C 7.363281 -2.367188 7.53125 -2.625 7.53125 -2.96875 C 7.53125 -3.195312 7.46875 -3.390625 7.34375 -3.546875 C 7.21875 -3.703125 6.96875 -3.847656 6.59375 -3.984375 C 6.226562 -4.128906 5.6875 -4.300781 4.96875 -4.5 C 4.3125 -4.675781 3.734375 -4.898438 3.234375 -5.171875 C 2.734375 -5.441406 2.34375 -5.789062 2.0625 -6.21875 C 1.78125 -6.644531 1.640625 -7.175781 1.640625 -7.8125 C 1.640625 -8.457031 1.816406 -9.03125 2.171875 -9.53125 C 2.535156 -10.03125 3.0625 -10.421875 3.75 -10.703125 C 4.445312 -10.992188 5.300781 -11.140625 6.3125 -11.140625 C 7.28125 -11.140625 8.117188 -11.015625 8.828125 -10.765625 C 9.546875 -10.523438 10.164062 -10.210938 10.6875 -9.828125 L 9.40625 -7.9375 C 8.957031 -8.21875 8.472656 -8.441406 7.953125 -8.609375 C 7.441406 -8.773438 6.925781 -8.859375 6.40625 -8.859375 C 5.882812 -8.859375 5.492188 -8.785156 5.234375 -8.640625 C 4.984375 -8.503906 4.859375 -8.296875 4.859375 -8.015625 C 4.859375 -7.835938 4.925781 -7.679688 5.0625 -7.546875 C 5.195312 -7.421875 5.445312 -7.285156 5.8125 -7.140625 C 6.175781 -7.003906 6.707031 -6.832031 7.40625 -6.625 C 8.101562 -6.4375 8.710938 -6.210938 9.234375 -5.953125 C 9.753906 -5.691406 10.15625 -5.347656 10.4375 -4.921875 C 10.71875 -4.492188 10.859375 -3.925781 10.859375 -3.21875 C 10.859375 -2.4375 10.625 -1.78125 10.15625 -1.25 C 9.695312 -0.71875 9.082031 -0.316406 8.3125 -0.046875 C 7.539062 0.210938 6.691406 0.34375 5.765625 0.34375 C 4.722656 0.34375 3.800781 0.195312 3 -0.09375 C 2.207031 -0.394531 1.53125 -0.789062 0.96875 -1.28125 L 2.578125 -3.09375 C 2.992188 -2.757812 3.46875 -2.484375 4 -2.265625 C 4.53125 -2.054688 5.113281 -1.953125 5.75 -1.953125 Z M 5.75 -1.953125 "/></g></g></g><g fill="#1c44ed" fill-opacity="1"><g transform="translate(0, 40.861121)"><g><path d="M 6.546875 5.171875 L 6.546875 -34.578125 L 19.5 -34.578125 L 19.5 -29.625 L 12.8125 -29.625 L 12.8125 0.25 L 19.5 0.25 L 19.5 5.171875 Z M 6.546875 5.171875 "/></g></g></g><g fill="#1c44ed" fill-opacity="1"><g transform="translate(26.341678, 40.861121)"><g><path d="M 18.65625 -34.578125 L 18.65625 5.171875 L 5.71875 5.171875 L 5.71875 0.203125 L 12.390625 0.203125 L 12.390625 -29.625 L 5.71875 -29.625 L 5.71875 -34.578125 Z M 18.65625 -34.578125 "/></g></g></g><g fill="#c21c8f" fill-opacity="1"><g transform="translate(19.656941, 35.469016)"><g><path d="M 2.8125 0 L 0.171875 -11.328125 L 2.5 -11.328125 L 5.125 0 Z M 2.8125 0 "/></g></g></g><g fill="#c21c8f" fill-opacity="1"><g transform="translate(24.972858, 35.469016)"><g><path d="M 0.453125 -9.609375 L 2.75 -9.609375 L 2.75 -8.390625 C 2.851562 -8.785156 3.019531 -9.101562 3.25 -9.34375 C 3.488281 -9.59375 3.804688 -9.71875 4.203125 -9.71875 C 4.847656 -9.71875 5.328125 -9.515625 5.640625 -9.109375 C 5.953125 -8.710938 6.109375 -8.148438 6.109375 -7.421875 L 6.109375 0 L 3.84375 0 L 3.84375 -7.171875 C 3.84375 -7.390625 3.800781 -7.570312 3.71875 -7.71875 C 3.632812 -7.863281 3.503906 -7.9375 3.328125 -7.9375 C 3.097656 -7.9375 2.941406 -7.828125 2.859375 -7.609375 C 2.785156 -7.398438 2.75 -7.117188 2.75 -6.765625 L 2.75 0 L 0.453125 0 Z M 0.453125 -9.609375 "/></g></g></g></svg>